<?xml version="1.0" encoding="iso-8859-1"?>
<!-- Generator: Adobe Illustrator 19.0.0, SVG Export Plug-In . SVG Version: 6.00 Build 0)  -->
<svg version="1.1" id="Capa_1" xmlns="http://www.w3.org/2000/svg" xmlns:xlink="http://www.w3.org/1999/xlink" x="0px" y="0px"
	 viewBox="0 0 512.001 512.001" style="enable-background:new 0 0 512.001 512.001;" xml:space="preserve">
<g>
	<g>
		<path d="M256.017,121.493c-39.609,0-76.892,13.013-107.816,37.633c-30.004,23.887-51.493,57.451-60.509,94.51
			c-1.305,5.366,1.986,10.775,7.353,12.081c5.365,1.303,10.774-1.986,12.081-7.353c16.741-68.812,77.968-116.871,148.892-116.871
			c84.491,0,153.229,68.738,153.229,153.229s-68.738,153.229-153.229,153.229c-71.594,0-132.953-48.616-149.215-118.225
			c-1.257-5.378-6.635-8.72-12.013-7.463c-5.378,1.256-8.719,6.635-7.463,12.013c8.743,37.424,30.15,71.363,60.279,95.565
			c30.593,24.576,69.094,38.11,108.412,38.11c95.519,0,173.229-77.71,173.229-173.229S351.536,121.493,256.017,121.493z"/>
	</g>
</g>
<g>
	<g>
		<path d="M489.249,66.953l-16.571-16.571C457.993,35.697,438.468,27.61,417.7,27.61s-40.292,8.088-54.977,22.773
			c-3.905,3.905-3.905,10.237,0,14.142l35.315,35.315l-17.079,17.079c-33.644-23.749-73.231-37.345-114.943-39.222V60h21.266
			c16.542,0,30-13.458,30-30s-13.458-30-30-30h-62.531c-16.542,0-30,13.458-30,30s13.458,30,30,30h21.266v17.697
			c-41.711,1.877-81.298,15.473-114.941,39.22L113.999,99.84l35.315-35.315c3.905-3.905,3.905-10.237,0-14.142
			C134.629,35.698,115.105,27.61,94.337,27.61s-40.292,8.087-54.978,22.773l-16.57,16.571C8.104,81.638,0.016,101.163,0.016,121.93
			s8.088,40.292,22.772,54.978c1.875,1.875,4.419,2.929,7.071,2.929s5.196-1.054,7.071-2.929l34.765-34.765l15.636,15.636
			c-31.464,38.61-48.574,86.46-48.574,136.944c0,49.704,16.592,96.851,47.132,135.144c-4.153,6.856-11.263,18.598-18.378,30.355
			c-5.515,9.112-11.029,18.229-15.165,25.078c-2.071,3.43-3.797,6.292-5.005,8.301c-2.752,4.577-3.325,5.529-3.325,8.332
			c0,2.66,1.06,5.211,2.945,7.088c2.97,2.957,4.991,2.961,12.513,2.977c1.073,0.002,2.262,0.003,3.528,0.003
			c2.591,0,5.507-0.004,8.421-0.011c8.656-0.02,17.292-0.058,17.292-0.058c2.919-0.013,5.688-1.301,7.578-3.527l32.111-37.812
			c36.865,26.869,81.121,41.387,127.613,41.387s90.747-14.518,127.612-41.387l32.111,37.812c1.89,2.226,4.658,3.514,7.578,3.527
			c0,0,8.636,0.038,17.292,0.058c2.915,0.006,5.83,0.011,8.421,0.011c1.266,0,2.455-0.001,3.528-0.003
			c7.521-0.016,9.543-0.021,12.513-2.977c1.885-1.877,2.945-4.428,2.945-7.088c0-2.803-0.573-3.755-3.325-8.332
			c-1.208-2.009-2.934-4.871-5.005-8.301c-4.136-6.849-9.65-15.966-15.165-25.078c-7.115-11.757-14.226-23.499-18.378-30.355
			c30.541-38.293,47.132-85.44,47.132-135.144c0-50.483-17.109-98.332-48.572-136.941l15.638-15.638l34.765,34.765
			c1.875,1.875,4.419,2.929,7.072,2.929c2.652,0,5.196-1.054,7.071-2.929C519.563,146.593,519.563,97.268,489.249,66.953z
			 M224.751,40c-5.514,0-10-4.486-10-10s4.486-10,10-10h62.531c5.514,0,10,4.486,10,10s-4.486,10-10,10H224.751z M64.626,120.927
			c0,0.001-0.001,0.001-0.002,0.002l-0.002,0.002l-34.156,34.157c-6.791-9.644-10.45-21.12-10.45-33.158
			c0-15.425,6.007-29.927,16.915-40.835l16.571-16.571C64.76,53.266,79.548,47.637,94.337,47.637
			c11.622,0,23.243,3.476,33.151,10.429l-34.7,34.7c-0.001,0.001-0.002,0.002-0.003,0.003c-0.001,0.001-0.002,0.002-0.003,0.003
			L64.626,120.927z M85.839,128l14.018-14.018l15.314,15.314c-4.387,3.748-8.655,7.676-12.779,11.801
			c-0.577,0.577-1.137,1.166-1.707,1.749L85.839,128z M84.028,491.952c-3.927,0.015-8.252,0.029-12.356,0.038
			c7.451-12.33,18.353-30.342,28.059-46.369c0.882,0.912,1.761,1.827,2.661,2.726c3.374,3.374,6.849,6.611,10.4,9.734
			L84.028,491.952z M440.361,491.99c-4.103-0.009-8.43-0.023-12.356-0.038l-28.764-33.871c3.552-3.123,7.026-6.36,10.401-9.734
			c0.9-0.9,1.779-1.814,2.661-2.726C422.008,461.648,432.911,479.66,440.361,491.99z M453.275,294.722
			c0,108.769-88.49,197.258-197.258,197.258c-108.769,0-197.258-88.49-197.258-197.258c0-108.769,88.49-197.259,197.258-197.259
			S453.275,185.953,453.275,294.722z M411.351,142.848c-0.571-0.583-1.131-1.173-1.709-1.751c-4.124-4.124-8.39-8.052-12.776-11.799
			l15.316-15.316L426.199,128L411.351,142.848z M481.565,155.082l-34.149-34.15c-0.001-0.001-0.002-0.002-0.003-0.003
			c-0.001-0.001-0.002-0.002-0.003-0.003L419.254,92.77c-0.001-0.001-0.001-0.001-0.001-0.001c-0.001-0.001-0.002-0.002-0.002-0.002
			l-34.708-34.708c9.644-6.791,21.12-10.45,33.158-10.45c15.425,0,29.928,6.007,40.835,16.915l16.571,16.571
			C495.213,101.201,497.366,132.565,481.565,155.082z"/>
	</g>
</g>
<g>
	<g>
		<path d="M256.017,260.023c-5.936,0-11.527,1.5-16.418,4.138l-40.682-40.682c-3.905-3.905-10.237-3.905-14.143,0
			c-3.905,3.905-3.905,10.237,0,14.143l40.682,40.682c-2.638,4.891-4.139,10.482-4.139,16.418c0,15.657,10.427,28.92,24.699,33.224
			v94.387c0.001,5.523,4.478,10,10.001,10c5.523,0,10-4.477,10-10v-94.387c14.273-4.304,24.699-17.567,24.699-33.224
			C290.716,275.589,275.15,260.023,256.017,260.023z M256.016,309.421c-8.105,0-14.699-6.594-14.699-14.699
			c0-8.105,6.594-14.699,14.699-14.699c8.105,0,14.699,6.594,14.699,14.699C270.715,302.827,264.121,309.421,256.016,309.421z"/>
	</g>
</g>
<g>
	<g>
		<path d="M356.914,224.843c-3.148-4.538-9.379-5.664-13.917-2.516c-4.538,3.148-5.664,9.379-2.516,13.917
			c11.944,17.217,18.258,37.438,18.258,58.479c0,5.523,4.477,10,10,10s10-4.477,10-10
			C378.739,269.587,371.192,245.424,356.914,224.843z"/>
	</g>
</g>
<g>
	<g>
		<path d="M375.806,324.93c-1.86-1.86-4.44-2.93-7.07-2.93s-5.21,1.07-7.07,2.93s-2.93,4.44-2.93,7.07s1.07,5.21,2.93,7.07
			c1.86,1.86,4.44,2.93,7.07,2.93s5.21-1.07,7.07-2.93c1.86-1.86,2.93-4.44,2.93-7.07S377.666,326.79,375.806,324.93z"/>
	</g>
</g>
<g>
	<g>
		<path d="M99.856,287.65c-1.86-1.86-4.44-2.93-7.07-2.93s-5.21,1.07-7.07,2.93s-2.93,4.44-2.93,7.07s1.07,5.21,2.93,7.07
			s4.44,2.93,7.07,2.93s5.211-1.07,7.07-2.93c1.86-1.86,2.93-4.44,2.93-7.07S101.716,289.51,99.856,287.65z"/>
	</g>
</g>
<g>
</g>
<g>
</g>
<g>
</g>
<g>
</g>
<g>
</g>
<g>
</g>
<g>
</g>
<g>
</g>
<g>
</g>
<g>
</g>
<g>
</g>
<g>
</g>
<g>
</g>
<g>
</g>
<g>
</g>
</svg>
