<svg width="28" height="22" viewBox="0 0 28 22" fill="none" xmlns="http://www.w3.org/2000/svg">
<path d="M26.6747 14.3512V6.58747C26.6747 6.09768 26.4414 5.66344 26.097 5.51329L13.593 0.054461C13.4268 -0.0181537 13.2478 -0.0181537 13.0816 0.054461L0.577637 5.51329C0.23349 5.66344 0 6.09739 0 6.58747C0 7.07725 0.23349 7.51121 0.577637 7.66135L6.83765 10.3944V14.6286C6.83765 14.6471 6.83807 14.6653 6.83871 14.6836C6.86349 15.7818 7.62976 16.8224 9.00272 17.6194C10.2569 18.3476 11.7965 18.7485 13.3376 18.7485C14.8786 18.7485 16.4182 18.3476 17.6724 17.6194C19.0682 16.8091 19.837 15.747 19.837 14.6286V10.3944L25.008 8.13696V14.3512C24.2304 14.7935 23.6827 15.8356 23.6827 17.0477V20.8714C23.6827 21.4946 24.0559 22 24.516 22H27.1667C27.6268 22 28 21.4946 28 20.8714V17.0477C28 15.8356 27.4525 14.7935 26.6747 14.3512ZM16.7549 15.6877C15.7494 16.2059 14.5358 16.4914 13.3376 16.4914C12.1391 16.4914 10.9255 16.2059 9.92023 15.6877C9.03903 15.2332 8.60495 14.7417 8.50433 14.5354V11.122L13.0816 13.1202C13.1647 13.1563 13.251 13.1746 13.3373 13.1746C13.4236 13.1746 13.5099 13.1566 13.593 13.1202L18.1703 11.122V14.5363C18.0689 14.7429 17.635 15.2338 16.7549 15.6877ZM13.3373 10.8604L3.54935 6.58747L13.3373 2.31448L23.1253 6.58747L13.3373 10.8604ZM26.3333 19.7429H25.3494V17.0477C25.3494 16.6803 25.5703 16.3815 25.8413 16.3815C26.1126 16.3815 26.3333 16.6803 26.3333 17.0477V19.7429Z" fill="#C7C7C7"/>
</svg>
