<svg width="23" height="23" viewBox="0 0 23 23" fill="none" xmlns="http://www.w3.org/2000/svg">
<path d="M21.5408 5.58467H17.5518V0.797823C17.5518 0.35719 17.1946 0 16.754 0H0.797823C0.35719 0 0 0.35719 0 0.797823V19.1474C0 20.9099 1.42876 22.3386 3.19124 22.3386H19.1474C20.9099 22.3386 22.3386 20.9099 22.3386 19.1474V6.38244C22.3386 5.94186 21.9814 5.58467 21.5408 5.58467ZM3.19124 20.743C2.31003 20.743 1.59565 20.0286 1.59565 19.1474V1.5956H15.9562V19.1474C15.9581 19.3397 15.9776 19.5314 16.0144 19.7202C16.0224 19.7657 16.0312 19.8104 16.0415 19.855C16.0809 20.0357 16.1359 20.2127 16.2059 20.384C16.2059 20.392 16.2139 20.3991 16.2171 20.4063C16.2662 20.5218 16.3221 20.6342 16.3846 20.743H3.19124ZM20.743 19.1474C20.743 20.0286 20.0286 20.743 19.1474 20.743C18.2662 20.743 17.5518 20.0286 17.5518 19.1474V7.18026H20.743V19.1474H20.743Z" fill="#C7C7CC"/>
</svg>
