<svg width="24" height="24" viewBox="0 0 24 24" fill="none" xmlns="http://www.w3.org/2000/svg">
<path d="M20.4292 15.4722C19.1257 14.1688 17.5743 13.2039 15.8816 12.6198C17.6945 11.3711 18.8856 9.28143 18.8856 6.91849C18.8856 3.10364 15.782 0 11.9671 0C8.15227 0 5.04862 3.10364 5.04862 6.91849C5.04862 9.28143 6.23968 11.3711 8.05265 12.6198C6.35996 13.2039 4.80853 14.1688 3.5051 15.4722C1.24481 17.7325 0 20.7377 0 23.9342H1.86986C1.86986 18.3666 6.39946 13.837 11.9671 13.837C17.5348 13.837 22.0644 18.3666 22.0644 23.9342H23.9342C23.9342 20.7377 22.6894 17.7325 20.4292 15.4722ZM11.9671 11.9671C9.18331 11.9671 6.91849 9.70233 6.91849 6.91849C6.91849 4.13464 9.18331 1.86986 11.9671 1.86986C14.7509 1.86986 17.0157 4.13464 17.0157 6.91849C17.0157 9.70233 14.7509 11.9671 11.9671 11.9671Z" fill="#FCB71E"/>
</svg>
